<svg width="100" height="100" xmlns="http://www.w3.org/2000/svg">
 <g id="Слой_1">
  <title>Слой 1</title>
  <g stroke="null" id="svg_11">
   <path stroke="#ffffff" id="svg_1" d="m15.07721,85.22714c0.37879,-28.0302 31.43928,-32.42412 31.13625,-70.45428" opacity="undefined" stroke-linecap="undefined" stroke-linejoin="undefined" stroke-width="10" fill="none"/>
   <path transform="rotate(58.0776 42.5782 46.1363)" stroke="#ffffff" id="svg_2" d="m29.37147,74.13282c0.30257,-21.80624 26.65382,-26.4072 26.41177,-55.99296" opacity="undefined" stroke-linecap="undefined" stroke-linejoin="undefined" stroke-width="10" fill="none"/>
   <path transform="rotate(-1.17463 50.4191 73.5226)" stroke="#ffffff" id="svg_7" d="m44.26256,84.72832c0.14105,-8.72805 12.42508,-10.56961 12.31224,-22.41144" opacity="undefined" stroke-linecap="undefined" stroke-linejoin="undefined" stroke-width="10" fill="none"/>
   <path transform="rotate(-1.17463 81.7826 73.5226)" stroke="#ffffff" id="svg_8" d="m75.62608,84.72832c0.14104,-8.72806 12.42507,-10.56961 12.31224,-22.41145" opacity="undefined" stroke-linecap="undefined" stroke-linejoin="undefined" stroke-width="10" fill="none"/>
   <path transform="rotate(56.4777 75.7603 71.9324)" stroke="#ffffff" id="svg_9" d="m71.74036,81.14625c6.26383,-9.08573 8.11151,-8.69085 8.03785,-18.42778" opacity="undefined" stroke-linecap="undefined" stroke-linejoin="undefined" stroke-width="7" fill="none"/>
   <path transform="rotate(0.765917 68.9174 69.889)" stroke="#ffffff" id="svg_10" d="m64.89821,77.2818c0.09208,-5.75823 8.11151,-6.97317 8.03785,-14.78568" opacity="undefined" stroke-linecap="undefined" stroke-linejoin="undefined" stroke-width="7" fill="none"/>
  </g>
 </g>

</svg>